<?xml version="1.0" encoding="UTF-8" standalone="no"?>
<!-- Generator: visioncortex VTracer -->

<svg
   id="svg"
   version="1.1"
   style="display:block"
   viewBox="0 0 456 544"
   sodipodi:docname="logo_v2.svg"
   inkscape:version="1.4.4 (dcaf3e7, 2026-05-05)"
   width="456"
   height="544"
   xmlns:inkscape="http://www.inkscape.org/namespaces/inkscape"
   xmlns:sodipodi="http://sodipodi.sourceforge.net/DTD/sodipodi-0.dtd"
   xmlns="http://www.w3.org/2000/svg"
   xmlns:svg="http://www.w3.org/2000/svg">
  <defs
     id="defs3" />
  <sodipodi:namedview
     id="namedview3"
     pagecolor="#ffffff"
     bordercolor="#000000"
     borderopacity="0.25"
     inkscape:showpageshadow="2"
     inkscape:pageopacity="0.0"
     inkscape:pagecheckerboard="0"
     inkscape:deskcolor="#d1d1d1"
     inkscape:zoom="1.4026442"
     inkscape:cx="393.18595"
     inkscape:cy="262.00514"
     inkscape:window-width="2560"
     inkscape:window-height="1369"
     inkscape:window-x="1912"
     inkscape:window-y="-8"
     inkscape:window-maximized="1"
     inkscape:current-layer="svg" />
  <g
     id="g3"
     transform="matrix(1.4260342,0,0,1.3907715,-68.034341,-42.713547)">
    <path
       id="path2-9-2-1-6-5"
       style="display:block;fill:#31337d;fill-opacity:1;stroke-width:0.980678"
       d="m 93.553981,38.164648 c -1.7681,0.007 -3.53659,0.0126 -5.30469,0.0156 v -0.002 c -11.2756,-0.0675 -21.10418,-0.49988 -29.95508,7.48047 -0.56161,0.62981 -1.09246,1.25767 -1.59375,1.88671 l 71.957029,77.083992 v -17.31055 c 11.0345,-0.017 22.06902,-0.0349 33.10352,-0.0449 7.2658,-0.006 14.53302,-0.01 21.79882,-0.0215 6.05381,-0.0108 12.10626,-0.0224 18.16016,-0.0254 2.3016,-10e-4 4.60455,-0.002 6.90625,-0.004 3.3163,-0.008 6.63292,-0.0149 9.94922,-0.0156 h 3.04492 l 2.86328,-0.01 2.64649,0.004 c 12.1339,-0.0145 23.23495,4.96332 32.93945,11.88671 l 1.96094,1.96094 2.14453,2.63477 c 7.5231,10.79022 8.89731,21.87011 7.66211,34.63086 -1.3765,9.30684 -6.54212,18.08593 -13.54492,24.33203 -13.577,9.15314 -28.55415,9.84248 -44.40235,9.63281 -2.3229,-0.032 -4.64575,-0.0537 -6.96875,-0.0645 -6.1238,-0.0152 -12.24779,-0.0489 -18.37109,-0.11328 -7.5855,-0.0804 -15.17006,-0.12125 -22.75586,-0.15625 -18.40531,-0.11484 -18.56838,-0.11812 -36.6543,-0.28516 l 55.99024,68.97852 c -4.3105,-0.027 -8.62119,-0.0579 -12.93164,-0.0879 -14.5095,-0.1011 -29.0196,-0.18857 -43.5293,-0.26757 v 0.0195 c 14.50498,0.0786 29.01085,0.16648 43.51562,0.26758 7.058,0.0493 14.11583,0.0972 21.17383,0.13476 6.1959,0.0325 12.39209,0.0694 18.58789,0.11524 2.6272,0.0201 5.25366,0.0382 7.88086,0.0566 3.7781,0.0166 7.55599,0.0342 11.33399,0.0644 l 3.48242,0.0293 c 3.9078,0.008 7.79506,0.0241 11.69336,0.3125 0.7146,0.12535 1.42882,0.26585 2.14062,0.42187 l 61.74414,-39.81445 v -0.002 l 0.002,-0.002 0.002,-0.002 c 0.001,-5e-4 0.003,5e-4 0.006,0 1.4198,-1.39948 2.89426,-2.66882 4.47656,-3.95508 15.6059,-12.54182 27.3259,-27.16839 33.5918,-46.43164 l 1.01172,-3.37891 c 2.5905,-8.04317 3.12677,-15.60177 3.23437,-24.00781 l 0.0156,-3.69726 c 0.034,-7.22931 -0.12434,-14.1316 -1.74024,-21.19922 l -0.52929,-2.0918 c -1.6942,-6.84107 -3.99618,-13.25774 -7.04688,-19.613282 -12.7377,-24.31748 -33.05632,-42.11284 -58.76172,-51.80664 l -2.4707,-0.9043 c -14.3531,-5.43877 -29.80468,-6.5717 -45.02148,-6.5332 -1.7127,0.005 -3.42402,0.006 -5.13672,0 -4.709,-0.0204 -9.41796,-0.0324 -14.12696,-0.0274 -3.9809,0.005 -7.96451,0.006 -11.94531,0 -9.4026,-0.013 -18.80248,-0.0182 -28.20508,-0.008 -9.7335,0.0115 -19.46777,0.008 -29.20117,-0.0176 -8.4565,-0.0227 -16.91264,-0.0362 -25.36914,-0.0332 -5.0303,0.004 -10.05954,0.0116 -15.08984,-0.002 -4.7865,-0.0164 -9.572779,-0.0273 -14.359379,-0.0137 z m -38.86133,12.14257 c -3.55466,5.41543 -5.05683,11.08898 -5.1211,18.25782 l 0.043,3.5332 c -0.014,4.02942 -0.0232,8.05659 0.01,12.08594 0.027,3.71141 0.0303,7.42327 0.0273,11.13476 -0.01,6.435412 3.5e-4,12.869322 0.0273,19.304692 0.04,9.38115 0.0594,18.76329 0.0664,28.14453 0.01,15.2065 0.036,30.4127 0.082,45.61914 0.045,14.81679 0.084,29.63433 0.10547,44.45117 v 2.77344 c 0.01,4.59816 0.0135,9.19675 0.0195,13.79492 0.052,38.937 0.1377,77.87368 0.25,116.81055 2.4997,-1.16874 4.15131,-2.16991 6.22461,-4.05664 l 2.52539,-2.57422 c 1.4213,-1.43717 2.84156,-2.87635 4.25586,-4.32031 1.9092,-1.95211 3.82108,-3.89947 5.73828,-5.84375 l 1.40625,-1.42188 c 2.9976,-3.03296 6.02573,-5.98419 9.26953,-8.75586 4.18011,-3.57038 4.18101,-3.57102 12.03711,-11.50586 6.5145,-6.59721 12.961849,-13.27336 19.873049,-19.45898 2.9219,-2.5896 5.76512,-5.192 8.41992,-8.05664 0.005,-0.006 0.009,-0.0133 0.0137,-0.0195 -2.65481,2.8646 -5.49803,5.46704 -8.41993,8.05664 -6.9112,6.1856 -13.358539,12.86178 -19.873039,19.45898 -7.8561,7.9348 -7.85701,7.93556 -12.03711,11.50586 -3.2438,2.7717 -6.27193,5.72286 -9.26953,8.75586 l -1.40625,1.42188 c -1.9172,1.9443 -3.82909,3.89165 -5.73829,5.84375 -1.4143,1.444 -2.83458,2.88321 -4.25585,4.32031 l -2.5254,2.57422 c -2.0733,1.8867 -3.72492,2.88794 -6.2246,4.05664 -0.11228,-38.9369 -0.19831,-77.87345 -0.25,-116.81055 -0.006,-4.5981 -0.0135,-9.19672 -0.0195,-13.79492 l -0.004,-2.77344 c -0.0214,-14.81685 -0.0604,-29.63438 -0.10547,-44.45117 -0.0458,-15.20644 -0.072,-30.41264 -0.082,-45.61914 -0.007,-9.38124 -0.0286,-18.76338 -0.0684,-28.14453 -0.0263,-6.43537 -0.0333,-12.86928 -0.0273,-19.304692 0.003,-3.71149 -3.4e-4,-7.42335 -0.0273,-11.13476 -0.0285,-4.02935 -0.0194,-8.05652 -0.006,-12.08594 l -0.043,-3.53321 c 0.0642,-7.16043 1.56356,-12.82845 5.10938,-18.23828 z m 73.964839,93.867192 -0.006,0.006 v 46.87891 l 0.006,0.008 z" />
    <path
       id="path2-9-2-1"
       style="display:block;fill:#3060ab;fill-opacity:1;stroke-width:0.980678"
       d="m 310.14613,221.93829 -61.74414,39.81446 c 9.56813,2.09717 18.80138,6.95565 25.31836,14.28906 8.0575,10.55372 9.69747,22.30159 8.82617,35.30469 -1.7376,8.93601 -5.93833,16.88165 -12.46093,23.19531 -19.1445,10.02811 -19.14485,10.02694 -41.15625,9.83594 -2.4775,-0.008 -4.956,-0.006 -7.4336,0.004 -6.5244,0.0384 -13.04776,0.0625 -19.57226,0.0605 -8.7182,-0.002 -17.4363,0.0243 -26.1543,0.0586 -5.6877,0.0228 -11.3748,0.0487 -17.0625,0.0527 -2.3629,0 -4.72694,0.002 -7.08984,0.006 l -3.30274,0.006 c -2.8655,-0.006 -5.72845,-10e-4 -8.59375,0.0352 -13.0954,0.50176 -21.94235,8.55874 -31.06055,17.1582 -1.1896,1.12423 -2.37996,2.24575 -3.57226,3.36719 -2.1193,1.99232 -4.23992,3.98623 -6.357419,5.98047 -3.9266,3.71513 -7.8437,7.43344 -11.875,11.03516 -5.4119,4.82836 -12.966,10.06851 -14.6211,17.52344 -0.232,4.54655 0.79803,8.03111 3.39063,11.71093 3.7034,2.51901 5.97573,3.79903 10.42773,4.41211 l 3.875,0.002 c 2.2881,0.0177 4.57508,0.0285 6.86328,0.0156 1.6734,-0.0106 3.346129,-0.0138 5.019539,-0.01 4.5691,0.0183 9.13793,0.0211 13.70703,0.006 4.8711,-0.0167 9.74218,-0.0186 14.61328,-0.0156 8.1774,0.006 16.35395,-0.002 24.53125,-0.0234 9.4876,-0.0258 18.97519,-0.0386 28.46289,-0.0273 9.2126,0.0115 18.42607,0.0117 27.63867,-0.002 3.9073,-0.006 7.8134,-0.0108 11.7207,-0.008 4.6616,0.006 9.32288,0.006 13.98438,-0.0117 1.7404,-0.008 3.48225,-0.0135 5.22265,-0.0195 15.0814,0.0449 29.72554,-1.3005 44.39844,-4.99023 l 2.03516,-0.55469 c 16.568,-4.4773 33.655,-12.10931 46.2207,-24.05859 l 2.13867,-2.17578 c 5.2439,-5.3187 10.29025,-10.69168 14.46485,-16.91602 13.5852,-22.73977 17.31734,-48.17221 12.99414,-74.28711 -6.0273,-26.23966 -19.20602,-46.03539 -40.73242,-62 l -1.80469,-1.31445 c -3.1655,-2.31792 -6.1394,-4.21684 -9.8457,-5.60352 l -2.53516,-0.70898 c 0.37048,-0.39355 0.74374,-0.7744 1.12109,-1.14649 z" />
    <path
       id="path2-9-2-1-6"
       style="display:block;fill:#1e1c58;fill-opacity:1;stroke-width:0.980678"
       d="m 56.745931,47.520938 c -0.73109,0.91741 -1.39984,1.83549 -2.00781,2.76172 -3.54582,5.40983 -5.04518,11.07785 -5.10938,18.23828 l 0.043,3.53321 c -0.0135,4.02942 -0.0226,8.05659 0.006,12.08594 0.027,3.71141 0.0303,7.42327 0.0273,11.13476 -0.006,6.435412 10e-4,12.869322 0.0274,19.304692 0.0398,9.38115 0.0614,18.76329 0.0684,28.14453 0.01,15.2065 0.0362,30.4127 0.082,45.61914 0.0451,14.81679 0.0841,29.63432 0.10547,44.45117 l 0.004,2.77344 c 0.006,4.5982 0.0135,9.19682 0.0195,13.79492 0.0517,38.9371 0.13772,77.87365 0.25,116.81055 2.49968,-1.1687 4.1513,-2.16994 6.2246,-4.05664 l 2.5254,-2.57422 c 1.42127,-1.4371 2.84155,-2.87631 4.25585,-4.32031 1.9092,-1.9521 3.82109,-3.89945 5.73829,-5.84375 l 1.40625,-1.42188 c 2.9976,-3.033 6.02573,-5.98416 9.26953,-8.75586 4.1801,-3.5703 4.18101,-3.57106 12.03711,-11.50586 6.5145,-6.5972 12.961839,-13.27338 19.873039,-19.45898 2.9219,-2.5896 5.76512,-5.19204 8.41993,-8.05664 0.61624,-0.74593 1.19941,-1.48827 1.74804,-2.23242 5.20771,-7.07078 7.39985,-14.17189 7.28711,-23.35938 l -0.0996,-3.15234 c -0.05,-3.05063 -0.10159,-6.10045 -0.18359,-9.15039 l -0.0625,-2.00586 c 0.005,2e-5 0.009,-3e-5 0.0137,0 v -0.0195 c 14.5097,0.079 29.0198,0.16647 43.5293,0.26757 4.31045,0.03 8.62114,0.0609 12.93164,0.0879 l -55.99024,-68.97852 c -0.15967,-0.001 -0.31993,-0.002 -0.48242,-0.004 v -0.58984 l -0.006,-0.008 v -46.87891 l 0.006,-0.006 v -19.54492 z" />
    <path
       id="path15"
       style="display:block;fill:#3060ab;fill-opacity:1;stroke-width:0.980678"
       d="m 310.14613,221.93829 -61.74414,39.81446 c 9.56813,2.09717 18.80138,6.95565 25.31836,14.28906 8.0575,10.55372 9.69747,22.30159 8.82617,35.30469 -1.7376,8.93601 -5.93833,16.88165 -12.46093,23.19531 -19.1445,10.02811 -19.14485,10.02694 -41.15625,9.83594 -2.4775,-0.008 -4.956,-0.006 -7.4336,0.004 -6.5244,0.0384 -13.04776,0.0625 -19.57226,0.0605 -8.7182,-0.002 -17.4363,0.0243 -26.1543,0.0586 -5.6877,0.0228 -11.3748,0.0487 -17.0625,0.0527 -2.3629,0 -4.72694,0.002 -7.08984,0.006 l -3.30274,0.006 c -2.8655,-0.006 -5.72845,-10e-4 -8.59375,0.0352 -13.0954,0.50176 -21.94235,8.55874 -31.06055,17.1582 -1.1896,1.12423 -2.37996,2.24575 -3.57226,3.36719 -2.1193,1.99232 -4.23992,3.98623 -6.357419,5.98047 -3.9266,3.71513 -7.8437,7.43344 -11.875,11.03516 -5.4119,4.82836 -12.966,10.06851 -14.6211,17.52344 -0.232,4.54655 0.79803,8.03111 3.39063,11.71093 3.7034,2.51901 5.97573,3.79903 10.42773,4.41211 l 3.875,0.002 c 2.2881,0.0177 4.57508,0.0285 6.86328,0.0156 1.6734,-0.0106 3.346129,-0.0138 5.019539,-0.01 4.5691,0.0183 9.13793,0.0211 13.70703,0.006 4.8711,-0.0167 9.74218,-0.0186 14.61328,-0.0156 8.1774,0.006 16.35395,-0.002 24.53125,-0.0234 9.4876,-0.0258 18.97519,-0.0386 28.46289,-0.0273 9.2126,0.0115 18.42607,0.0117 27.63867,-0.002 3.9073,-0.006 7.8134,-0.0108 11.7207,-0.008 4.6616,0.006 9.32288,0.006 13.98438,-0.0117 1.7404,-0.008 3.48225,-0.0135 5.22265,-0.0195 15.0814,0.0449 29.72554,-1.3005 44.39844,-4.99023 l 2.03516,-0.55469 c 16.568,-4.4773 33.655,-12.10931 46.2207,-24.05859 l 2.13867,-2.17578 c 5.2439,-5.3187 10.29025,-10.69168 14.46485,-16.91602 13.5852,-22.73977 17.31734,-48.17221 12.99414,-74.28711 -6.0273,-26.23966 -19.20602,-46.03539 -40.73242,-62 l -1.80469,-1.31445 c -3.1655,-2.31792 -6.1394,-4.21684 -9.8457,-5.60352 l -2.53516,-0.70898 c 0.37048,-0.39355 0.74374,-0.7744 1.12109,-1.14649 z" />
  </g>
</svg>
